<?xml version="1.0" encoding="UTF-8"?>
<svg width="44px" height="44px" viewBox="0 0 44 44" version="1.1" xmlns="http://www.w3.org/2000/svg" xmlns:xlink="http://www.w3.org/1999/xlink">
    <!-- Generator: Sketch 41.2 (35397) - http://www.bohemiancoding.com/sketch -->
    <title>2_weeks</title>
    <desc>Created with Sketch.</desc>
    <defs></defs>
    <g id="Symbols" stroke="none" stroke-width="1" fill="none" fill-rule="evenodd">
        <g id="2_weeks" fill="#FFFFFF">
            <g id="Group">
                <g>
                    <path d="M41,4 L38,4 L38,1 C38,0.4 37.6,0 37,0 C36.4,0 36,0.4 36,1 L36,4 L32,4 L32,1 C32,0.4 31.6,0 31,0 C30.4,0 30,0.4 30,1 L30,4 L26,4 L26,1 C26,0.4 25.6,0 25,0 C24.4,0 24,0.4 24,1 L24,4 L20,4 L20,1 C20,0.4 19.6,0 19,0 C18.4,0 18,0.4 18,1 L18,4 L14,4 L14,1 C14,0.4 13.6,0 13,0 C12.4,0 12,0.4 12,1 L12,4 L8,4 L8,1 C8,0.4 7.6,0 7,0 C6.4,0 6,0.4 6,1 L6,4 L3,4 C1.3,4 0,5.3 0,7 L0,41 C0,42.7 1.3,44 3,44 L41,44 C42.7,44 44,42.7 44,41 L44,7 C44,5.3 42.7,4 41,4 Z M3,6 L6,6 L6,7 C6,7.6 6.4,8 7,8 C7.6,8 8,7.6 8,7 L8,6 L12,6 L12,7 C12,7.6 12.4,8 13,8 C13.6,8 14,7.6 14,7 L14,6 L18,6 L18,7 C18,7.6 18.4,8 19,8 C19.6,8 20,7.6 20,7 L20,6 L24,6 L24,7 C24,7.6 24.4,8 25,8 C25.6,8 26,7.6 26,7 L26,6 L30,6 L30,7 C30,7.6 30.4,8 31,8 C31.6,8 32,7.6 32,7 L32,6 L36,6 L36,7 C36,7.6 36.4,8 37,8 C37.6,8 38,7.6 38,7 L38,6 L41,6 C41.6,6 42,6.4 42,7 L42,14 L2,14 L2,7 C2,6.4 2.4,6 3,6 Z M41,42 L3,42 C2.4,42 2,41.6 2,41 L2,16 L42,16 L42,41 C42,41.6 41.6,42 41,42 Z M25,20 L19,20 C18.4,20 18,20.4 18,21 L18,27 C18,27.6 18.4,28 19,28 L25,28 C25.6,28 26,27.6 26,27 L26,21 C26,20.4 25.6,20 25,20 Z M24,26 L20,26 L20,22 L24,22 L24,26 Z M25,30 L19,30 C18.4,30 18,30.4 18,31 L18,37 C18,37.6 18.4,38 19,38 L25,38 C25.6,38 26,37.6 26,37 L26,31 C26,30.4 25.6,30 25,30 Z M24,36 L20,36 L20,32 L24,32 L24,36 Z M13,20 L7,20 C6.4,20 6,20.4 6,21 L6,27 C6,27.6 6.4,28 7,28 L13,28 C13.6,28 14,27.6 14,27 L14,21 C14,20.4 13.6,20 13,20 Z M12,26 L8,26 L8,22 L12,22 L12,26 Z M13,30 L7,30 C6.4,30 6,30.4 6,31 L6,37 C6,37.6 6.4,38 7,38 L13,38 C13.6,38 14,37.6 14,37 L14,31 C14,30.4 13.6,30 13,30 Z M12,36 L8,36 L8,32 L12,32 L12,36 Z M37,20 L31,20 C30.4,20 30,20.4 30,21 L30,27 C30,27.6 30.4,28 31,28 L37,28 C37.6,28 38,27.6 38,27 L38,21 C38,20.4 37.6,20 37,20 Z M36,26 L32,26 L32,22 L36,22 L36,26 Z M37,30 L31,30 C30.4,30 30,30.4 30,31 L30,37 C30,37.6 30.4,38 31,38 L37,38 C37.6,38 38,37.6 38,37 L38,31 C38,30.4 37.6,30 37,30 Z M36,36 L32,36 L32,32 L36,32 L36,36 Z" id="Shape"></path>
                </g>
            </g>
        </g>
    </g>
</svg>