<?xml version="1.0" encoding="UTF-8"?>
<svg width="78px" height="42px" viewBox="0 0 78 42" version="1.1" xmlns="http://www.w3.org/2000/svg" xmlns:xlink="http://www.w3.org/1999/xlink">
    <!-- Generator: Sketch 41.2 (35397) - http://www.bohemiancoding.com/sketch -->
    <title>analytics</title>
    <desc>Created with Sketch.</desc>
    <defs></defs>
    <g id="Symbols" stroke="none" stroke-width="1" fill="none" fill-rule="evenodd">
        <g id="analytics" fill="#FFFFFF">
            <g id="46-all">
                <g>
                    <path d="M69.93,0.63 L69.93,0.63 C65.8086987,0.585453039 62.425792,3.87898313 62.36,8 L62.36,8 C62.3711034,9.8594744 63.0856442,11.6458266 64.36,13 L53.12,27.37 C52.1743301,26.9536278 51.1532588,26.7357993 50.12,26.73 L50.12,26.73 C48.9573604,26.7315325 47.8108245,27.0019096 46.77,27.52 L34.38,11.64 C36.1215393,8.74124393 35.6636647,5.02874758 33.27,2.64 C31.8635858,1.23493024 29.9580157,0.443938905 27.97,0.44 L27.97,0.44 C25.9939897,0.43060027 24.0936819,1.19934481 22.68,2.58 C19.8010602,5.3673476 19.6810465,9.94564938 22.41,12.88 L11.16,27.13 C8.33442185,25.8942601 5.04203232,26.4910798 2.83,28.64 C1.40934243,30.0195603 0.602709284,31.9121814 0.591425898,33.8924155 C0.580142513,35.8726497 1.36515565,37.7743399 2.77,39.17 C4.17641424,40.5750698 6.08198428,41.3660611 8.07,41.37 L8.07,41.37 C10.0460103,41.3793997 11.9463181,40.6106552 13.36,39.23 C14.7806576,37.8504397 15.5872907,35.9578186 15.5985741,33.9775845 C15.6098575,31.9973503 14.8248444,30.0956601 13.42,28.7 C13.2356586,28.5168916 13.0420724,28.3433315 12.84,28.18 L23.84,14.12 C25.03881,14.8715228 26.4251036,15.2700822 27.84,15.27 L27.84,15.27 C29.751693,15.2834586 31.5967486,14.5683207 33,13.27 L45,28.67 C43.4189312,30.0584882 42.5057457,32.0558541 42.49,34.16 L42.49,34.16 C42.5120351,38.2887978 45.8711583,41.6210838 50,41.61 L50,41.61 C54.1172921,41.6322851 57.4805861,38.3270559 57.53,34.21 C57.5377151,31.9608518 56.5221018,29.8302718 54.77,28.42 L65.77,14.35 C66.9677581,15.1050399 68.3541253,15.5070864 69.77,15.51 L69.77,15.51 C73.8789985,15.51 77.21,12.1789985 77.21,8.07 C77.21,3.96100146 73.8789985,0.63 69.77,0.63 L69.93,0.63 Z M13.64,34 C13.6215672,35.455181 13.0250671,36.843268 11.9820428,37.8581531 C10.9390186,38.8730382 9.53514092,39.431362 8.08,39.41 C6.61709869,39.4061022 5.21511999,38.8237418 4.18,37.79 C3.15262478,36.7735106 2.57927515,35.3852112 2.59,33.94 L2.59,33.94 C2.59519463,32.4958796 3.18289922,31.1149541 4.22,30.11 C5.25913851,29.093345 6.6562534,28.5258793 8.11,28.53 L8.11,28.53 C9.57290131,28.5338978 10.97488,29.1162582 12.01,30.15 C13.0520721,31.1597895 13.6402039,32.5489351 13.64,34 Z M27.89,13.27 C26.4305668,13.2634675 25.0326633,12.6813072 24,11.65 C22.9689536,10.6351787 22.391911,9.24666979 22.4,7.8 L22.4,7.8 C22.4053292,6.37066582 22.9813298,5.00266429 24,4 C25.0385368,2.9824273 26.4360447,2.41480197 27.89,2.42 L27.89,2.42 C29.3713679,2.39462176 30.8011781,2.96366464 31.86,4 C32.8910069,5.01171026 33.4718705,6.39551642 33.4718705,7.84 C33.4718705,9.28448358 32.8910069,10.6682897 31.86,11.68 C30.8092183,12.7297454 29.3749035,13.3041939 27.89,13.27 Z M55.6,34.2 C55.6243267,36.4419759 54.2925187,38.4767561 52.2281447,39.351632 C50.1637706,40.2265078 47.7754455,39.7683095 46.1814118,38.1915709 C44.5873781,36.6148324 44.1031533,34.2316476 44.9554573,32.1578526 C45.8077613,30.0840576 47.8278921,28.730132 50.07,28.73 L50.07,28.73 C51.5294968,28.7193563 52.9331586,29.2903183 53.9708201,30.3167212 C55.0084815,31.3431241 55.5947217,32.7404739 55.6,34.2 Z M69.88,13.51 L69.88,13.51 C66.875571,13.51 64.44,11.074429 64.44,8.07 C64.44,5.06557096 66.875571,2.63 69.88,2.63 L69.88,2.63 C71.8235248,2.62999994 73.6194159,3.66685807 74.5911783,5.34999995 C75.5629408,7.03314183 75.5629408,9.10685817 74.5911783,10.79 C73.6194159,12.4731419 71.8235248,13.5100001 69.88,13.51 L69.88,13.51 Z" id="Shape"></path>
                </g>
            </g>
        </g>
    </g>
</svg>