<?xml version="1.0" encoding="UTF-8"?>
<svg width="40px" height="32px" viewBox="0 0 40 32" version="1.1" xmlns="http://www.w3.org/2000/svg" xmlns:xlink="http://www.w3.org/1999/xlink">
    <!-- Generator: Sketch 41.2 (35397) - http://www.bohemiancoding.com/sketch -->
    <title>Camera</title>
    <desc>Created with Sketch.</desc>
    <defs></defs>
    <g id="Symbols" stroke="none" stroke-width="1" fill="none" fill-rule="evenodd">
        <g id="Camera" fill="#FFFFFF">
            <g id="Group">
                <g>
                    <g transform="translate(0.000000, 0.275814)" id="Shape">
                        <path d="M14.7826083,0.156627027 C14.4149996,0.163545946 14.1507387,0.406464865 14.0081735,0.6296 L12.065217,4.48095135 L3.91304304,4.48095135 C1.76026043,4.48095135 -4.34783033e-07,6.23169297 -4.34783033e-07,8.37284324 L-4.34783033e-07,27.3998703 C-4.34783033e-07,29.5410162 1.76026043,31.2917622 3.91304304,31.2917622 L36.086957,31.2917622 C38.2397396,31.2917622 40.0000004,29.5410162 40.0000004,27.3998703 L40.0000004,8.37284324 C40.0000004,6.23169297 38.2397396,4.48095135 36.086957,4.48095135 L27.9347822,4.48095135 L25.9918257,0.6296 C25.8473909,0.347001081 25.53613,0.156916757 25.2173909,0.156627027 L14.7826083,0.156627027 Z M15.3125213,1.88635676 L24.6874778,1.88635676 L26.6168691,5.72419459 C26.7575213,6.01177946 27.0697387,6.20790054 27.3913039,6.21068108 L36.086957,6.21068108 C37.3063483,6.21068108 38.26087,7.16003892 38.26087,8.37284324 L38.26087,27.3998703 C38.26087,28.6126703 37.3063483,29.5620324 36.086957,29.5620324 L3.91304304,29.5620324 C2.69365174,29.5620324 1.73913,28.6126703 1.73913,27.3998703 L1.73913,8.37284324 C1.73913,7.16003892 2.69365174,6.21068108 3.91304304,6.21068108 L12.6086952,6.21068108 C12.9302604,6.20808649 13.2424778,6.01177946 13.38313,5.72419459 L15.3125213,1.88635676 Z M19.9999996,9.23770811 C15.2078691,9.23770811 11.3043474,13.1200908 11.3043474,17.8863568 C11.3043474,22.652627 15.2078691,26.5350054 19.9999996,26.5350054 C24.792217,26.5350054 28.6956517,22.652627 28.6956517,17.8863568 C28.6956517,13.1200995 24.792217,9.23770811 19.9999996,9.23770811 Z M19.9999996,10.9674378 C23.8523039,10.9674378 26.9565213,14.0549103 26.9565213,17.8863568 C26.9565213,21.7177946 23.8523039,24.8052757 19.9999996,24.8052757 C16.1477822,24.8052757 13.0434778,21.7177946 13.0434778,17.8863568 C13.0434778,14.0549232 16.1477822,10.9674378 19.9999996,10.9674378 Z"></path>
                    </g>
                </g>
            </g>
        </g>
    </g>
</svg>