<?xml version="1.0" encoding="UTF-8"?>
<svg width="28px" height="26px" viewBox="0 0 28 26" version="1.1" xmlns="http://www.w3.org/2000/svg" xmlns:xlink="http://www.w3.org/1999/xlink">
    <!-- Generator: Sketch 41.2 (35397) - http://www.bohemiancoding.com/sketch -->
    <title>Content</title>
    <desc>Created with Sketch.</desc>
    <defs></defs>
    <g id="Website" stroke="none" stroke-width="1" fill="none" fill-rule="evenodd">
        <g id="Mobile-Portrait" transform="translate(-212.000000, -359.000000)" fill="#FFFFFF">
            <g id="Benefits" transform="translate(28.000000, 247.000000)">
                <g id="Bottom-Row" transform="translate(5.000000, 112.000000)">
                    <g id="Content" transform="translate(179.000000, 0.000000)">
                        <g id="noun_816034_cc">
                            <g id="Group">
                                <path d="M24.8398291,0.0151272727 L3.10010256,0.0151272727 C1.45217094,0.0151272727 0.111521368,1.33923636 0.111521368,2.9666 L0.111521368,22.9542182 C0.111521368,24.5818182 1.45241026,25.9056909 3.10010256,25.9056909 L24.8398291,25.9056909 C26.488,25.9056909 27.8284103,24.5815818 27.8284103,22.9542182 L27.8284103,2.96683636 C27.8286496,1.33923636 26.488,0.0151272727 24.8398291,0.0151272727 Z M27.1107009,22.9542182 C27.1107009,24.1906364 26.0921709,25.1966 24.8400684,25.1966 L3.10010256,25.1966 C1.84823932,25.1966 0.829470085,24.1906364 0.829470085,22.9542182 L0.829470085,7.56056364 L27.1107009,7.56056364 L27.1107009,22.9542182 L27.1107009,22.9542182 Z M27.1107009,6.85147273 L0.829470085,6.85147273 L0.829470085,2.96683636 C0.829470085,1.73041818 1.84823932,0.724454545 3.10010256,0.724454545 L24.8398291,0.724454545 C26.0919316,0.724454545 27.1104615,1.73041818 27.1104615,2.96683636 L27.1104615,6.85147273 L27.1107009,6.85147273 Z" id="Shape"></path>
                                <path d="M4.0334359,20.6031091 L10.065641,20.6031091 C10.2637949,20.6031091 10.4246154,20.4442727 10.4246154,20.2485636 L10.4246154,12.2909091 C10.4246154,12.0952 10.2637949,11.9363636 10.065641,11.9363636 L4.0334359,11.9363636 C3.83528205,11.9363636 3.67446154,12.0952 3.67446154,12.2909091 L3.67446154,20.2485636 C3.67446154,20.4442727 3.83528205,20.6031091 4.0334359,20.6031091 Z M4.39241026,12.6454545 L9.70666667,12.6454545 L9.70666667,19.8940182 L4.39241026,19.8940182 L4.39241026,12.6454545 Z" id="Shape"></path>
                                <rect id="Rectangle-path" x="12.3788718" y="12.6059818" width="3.51005128" height="0.709090909"></rect>
                                <rect id="Rectangle-path" x="12.3788718" y="14.0241636" width="5.90321368" height="0.709090909"></rect>
                                <rect id="Rectangle-path" x="12.3788718" y="16.8605273" width="12.1914872" height="0.709090909"></rect>
                                <rect id="Rectangle-path" x="12.3788718" y="18.2787091" width="12.1914872" height="0.709090909"></rect>
                                <rect id="Rectangle-path" x="12.3788718" y="19.6968909" width="12.1914872" height="0.709090909"></rect>
                                <path d="M3.0225641,5.37750909 L5.83070085,5.37750909 L5.83070085,2.60401818 L3.0225641,2.60401818 L3.0225641,5.37750909 Z M3.74051282,3.31310909 L5.11275214,3.31310909 L5.11275214,4.66841818 L3.74051282,4.66841818 L3.74051282,3.31310909 Z" id="Shape"></path>
                                <path d="M6.40362393,5.37750909 L9.21176068,5.37750909 L9.21176068,2.60401818 L6.40362393,2.60401818 L6.40362393,5.37750909 Z M7.12157265,3.31310909 L8.49381197,3.31310909 L8.49381197,4.66841818 L7.12157265,4.66841818 L7.12157265,3.31310909 Z" id="Shape"></path>
                                <path d="M9.78468376,5.37750909 L12.5928205,5.37750909 L12.5928205,2.60401818 L9.78468376,2.60401818 L9.78468376,5.37750909 Z M10.5026325,3.31310909 L11.8748718,3.31310909 L11.8748718,4.66841818 L10.5026325,4.66841818 L10.5026325,3.31310909 Z" id="Shape"></path>
                            </g>
                        </g>
                    </g>
                </g>
            </g>
        </g>
    </g>
</svg>