<?xml version="1.0" encoding="UTF-8"?>
<svg width="74px" height="92px" viewBox="0 0 74 92" version="1.1" xmlns="http://www.w3.org/2000/svg" xmlns:xlink="http://www.w3.org/1999/xlink">
    <!-- Generator: Sketch 41.2 (35397) - http://www.bohemiancoding.com/sketch -->
    <title>domain</title>
    <desc>Created with Sketch.</desc>
    <defs></defs>
    <g id="Symbols" stroke="none" stroke-width="1" fill="none" fill-rule="evenodd">
        <g id="domain" fill="#FFFFFF">
            <g id="Group">
                <g>
                    <g transform="translate(0.000000, 0.637820)" id="Shape">
                        <path d="M19.375002,0.50311 C7.736602,7.73701 2e-06,20.67471 2e-06,35.37808 C2e-06,57.6721 17.834502,75.8098 40.000002,76.3469 L40.000002,81.3781 L29.000002,81.3781 C28.431802,81.3881 28.185902,81.7571 28.031202,82.0969 L26.031202,89.0969 C25.856402,89.6935 26.378402,90.3837 27.000002,90.3781 L55.000002,90.3781 C55.621602,90.3881 56.143602,89.6935 55.968802,89.0969 L53.968802,82.0969 C53.847402,81.6827 53.431602,81.3742 53.000002,81.3781 L42.000002,81.3781 L42.000002,76.3469 C47.468002,76.214 52.670002,75.0112 57.406198,72.9406 C57.892398,72.7303 58.141698,72.0946 57.928098,71.6098 C57.714498,71.125 57.077098,70.88 56.593798,71.0969 C51.813702,73.1865 46.551102,74.3781 41.000002,74.3781 C19.449002,74.3781 2.000002,56.9291 2.000002,35.37808 C2.000002,21.37631 9.367102,9.10271 20.437502,2.22191 C20.829902,2.00591 21.039502,1.50411 20.917402,1.07311 C20.795302,0.64221 20.369202,0.37191 19.906202,0.34691 C19.697002,0.33691 19.512402,0.43191 19.375002,0.50311 L19.375002,0.50311 Z M41.000002,2.37811 C22.786502,2.37811 8.000002,17.16451 8.000002,35.37808 C8.000002,53.5917 22.786502,68.3781 41.000002,68.3781 C59.213598,68.3781 73.999998,53.5917 73.999998,35.37808 C73.999998,17.16451 59.213598,2.37811 41.000002,2.37811 Z M41.000002,4.37811 C58.132798,4.37811 71.999998,18.24541 71.999998,35.37808 C71.999998,52.5108 58.132798,66.3781 41.000002,66.3781 C23.867302,66.3781 10.000002,52.5108 10.000002,35.37808 C10.000002,18.24541 23.867302,4.37811 41.000002,4.37811 L41.000002,4.37811 Z M29.750002,83.3781 L52.250002,83.3781 L53.687502,88.3781 L28.312502,88.3781 L29.750002,83.3781 Z"></path>
                    </g>
                </g>
            </g>
        </g>
    </g>
</svg>