<?xml version="1.0" encoding="UTF-8"?>
<svg width="62px" height="62px" viewBox="0 0 62 62" version="1.1" xmlns="http://www.w3.org/2000/svg" xmlns:xlink="http://www.w3.org/1999/xlink">
    <!-- Generator: Sketch 41.2 (35397) - http://www.bohemiancoding.com/sketch -->
    <title>hosting</title>
    <desc>Created with Sketch.</desc>
    <defs></defs>
    <g id="Symbols" stroke="none" stroke-width="1" fill="none" fill-rule="evenodd">
        <g id="hosting" fill="#FFFFFF">
            <g id="Group">
                <g>
                    <path d="M10,6 L14,6 L14,8 L10,8 L10,6 Z M16,8 L20,8 L20,6 L16,6 L16,8 Z M24,8 L32,8 L32,6 L24,6 L24,8 Z M10,24 L14,24 L14,22 L10,22 L10,24 Z M16,24 L20,24 L20,22 L16,22 L16,24 Z M24,24 L32,24 L32,22 L24,22 L24,24 Z M10,40 L14,40 L14,38 L10,38 L10,40 Z M16,40 L20,40 L20,38 L16,38 L16,40 Z M24,40 L32,40 L32,38 L24,38 L24,40 Z M31,54 C29.895,54 29,54.895 29,56 C29,57.105 29.895,58 31,58 C32.105,58 33,57.105 33,56 C33,54.895 32.105,54 31,54 Z M62,56 C62,56.552 61.553,57 61,57 L36.91,57 C36.432,59.833 33.968,62 31,62 C28.032,62 25.569,59.833 25.09,57 L1,57 C0.448,57 0,56.552 0,56 C0,55.448 0.448,55 1,55 L25.09,55 C25.513,52.493 27.493,50.514 30,50.09 L30,46 L5,46 C4.448,46 4,45.552 4,45 L4,33 C4,32.448 4.448,32 5,32 L30,32 L30,30 L5,30 C4.448,30 4,29.552 4,29 L4,17 C4,16.448 4.448,16 5,16 L30,16 L30,14 L5,14 C4.448,14 4,13.552 4,13 L4,1 C4,0.448 4.448,0 5,0 L57,0 C57.553,0 58,0.448 58,1 L58,13 C58,13.552 57.553,14 57,14 L32,14 L32,16 L57,16 C57.553,16 58,16.448 58,17 L58,29 C58,29.552 57.553,30 57,30 L32,30 L32,32 L57,32 C57.553,32 58,32.448 58,33 L58,45 C58,45.552 57.553,46 57,46 L32,46 L32,50.09 C34.507,50.513 36.486,52.493 36.91,55 L61,55 C61.553,55 62,55.448 62,56 Z M6,12 L56,12 L56,2 L6,2 L6,12 Z M6,28 L56,28 L56,18 L6,18 L6,28 Z M6,44 L56,44 L56,34 L6,34 L6,44 Z M35,56 C35,53.794 33.206,52 31,52 C28.794,52 27,53.794 27,56 C27,58.206 28.794,60 31,60 C33.206,60 35,58.206 35,56 Z" id="Shape"></path>
                </g>
            </g>
        </g>
    </g>
</svg>