<?xml version="1.0" encoding="UTF-8"?>
<svg width="55px" height="66px" viewBox="0 0 55 66" version="1.1" xmlns="http://www.w3.org/2000/svg" xmlns:xlink="http://www.w3.org/1999/xlink">
    <!-- Generator: Sketch 41.2 (35397) - http://www.bohemiancoding.com/sketch -->
    <title>Group 4</title>
    <desc>Created with Sketch.</desc>
    <defs></defs>
    <g id="Symbols" stroke="none" stroke-width="2" fill="none" fill-rule="evenodd">
        <g id="Payments" transform="translate(0.000000, 1.000000)" stroke="#FFFFFF">
            <g id="Group-4">
                <path d="M15.725702,28.4636908 L11.3352367,33.1414852 C11.3352367,33.1414852 9.53705098,35.0866884 8.19286096,37.0418874 C6.84867094,38.9970863 6.36044053,40.8037597 5.88996857,42.3138428 C5.15157899,44.6838664 2.41716113,56.1016808 0.9767704,61.3591745 C0.243596335,64.0352942 1.87074635,63.9725832 1.87074635,63.9725832 L23.7966359,63.6382364 C23.7966359,63.6382364 25.4665059,63.6578629 25.9714935,63.1117991 C26.4764812,62.5657353 27.3180224,60.4146659 27.3180224,60.4146659 L32.2144498,47.2406227 C32.2144498,47.2406227 34.0874024,42.7160272 31.1792648,40.9938645 C28.2711272,39.2717019 25.7384416,40.3334048 24.5359902,41.7261815 C23.7748513,42.6077944 21.1467453,45.2090749 18.9687942,47.2406227 C18.3740067,47.7954282 17.4321289,47.8777466 16.7974838,47.6013964 C16.1628387,47.3250462 16.1001657,45.7441343 16.1001657,45.7441343 L16.1001657,28 L15.725702,28.4636908 Z" id="Path-2"></path>
                <g id="Group-3" transform="translate(15.000000, 0.000000)">
                    <g id="Group-2" transform="translate(0.300003, 0.000000)">
                        <path d="M28.1999969,0.5 L28.1999969,53.5" id="Line" stroke-linecap="square"></path>
                        <path d="M0.799995422,41.6875557 L0.799995422,5.99825958 C0.799995422,2.68551229 3.48722168,0 6.80023956,0 L32.7997513,0 C36.1135946,0 38.7999954,2.6778684 38.7999954,5.99825958 L38.7999954,48.0017404 C38.7999954,51.3144877 36.1127692,54 32.7997513,54 L14.3543861,54" id="Rectangle-3"></path>
                    </g>
                </g>
            </g>
        </g>
    </g>
</svg>
