<?xml version="1.0" encoding="UTF-8"?>
<svg width="74px" height="83px" viewBox="0 0 74 83" version="1.1" xmlns="http://www.w3.org/2000/svg" xmlns:xlink="http://www.w3.org/1999/xlink">
    <!-- Generator: Sketch 41.2 (35397) - http://www.bohemiancoding.com/sketch -->
    <title>professional</title>
    <desc>Created with Sketch.</desc>
    <defs></defs>
    <g id="Symbols" stroke="none" stroke-width="1" fill="none" fill-rule="evenodd">
        <g id="professional" fill="#FFFFFF">
            <g id="Group">
                <g>
                    <g transform="translate(0.000000, 0.637820)" id="Shape">
                        <path d="M36.96875,0.86218 C34.31011,1.11548 31.46575,1.30158 29.4375,2.54918 C23.49098,5.72298 17.3234,8.89588 11.5,12.39288 C6,18.34938 4.1926,26.69148 2.5313,33.23598 C1.6485,36.76918 1.0037,40.0253 0.5938,42.4548 C0.34541,43.9325 0.13558,45.4672 4.99999996e-05,46.861 C0.33113,54.8691 0.66631,62.8822 1.00005,70.892 C1.01615,71.4051 1.4867,71.861 2.00005,71.8608 L11.00005,71.8608 C11.52363,71.8607 12,71.3844 12.00005,70.8608 L12.00005,46.9233 C12.07135,46.4435 12.29649,45.7629 12.4375,45.2983 C13.24943,42.916 14.12414,40.7036 15.03125,38.51698 C15.04025,51.821 15.12995,64.115 15.03125,75.767 C15.29351,78.1275 17.12696,79.3959 19.15625,79.7983 C22.76399,80.4816 26.40568,81.1886 30,81.8606 C31.94013,81.6326 33.33814,80.7826 33.90625,79.0481 C35.01326,75.0804 35.99492,70.8192 37,66.7372 C38.07349,70.8021 38.9277,75.097 40.09375,79.0497 C40.45487,80.8297 42.48152,81.5829 44,81.8622 C47.6191,81.1881 51.27557,80.4879 54.90625,79.7999 C57.02462,79.333 58.99238,77.8494 59.03125,75.7686 C59.01585,63.4158 59.01985,51.0504 59.03125,38.67488 C59.94097,40.9194 60.82748,43.0575 61.5625,45.2999 C61.74724,45.7493 61.94973,46.6981 61.99995,46.9249 L61.99995,70.8624 C62,71.386 62.47637,71.8623 62.99995,71.8624 L71.99995,71.8624 C72.5133,71.8626 72.98388,71.4067 72.99995,70.8936 L73.99995,46.8936 C73.85647,45.3668 73.6309,43.8027 73.4062,42.4564 C72.99629,40.0269 72.35151,36.77078 71.4687,33.23758 C69,25.34938 68,18.34938 62.53125,12.39448 C56.44782,9.53068 50.73429,5.02728 44.5625,2.55078 C42,1.34938 39.33641,0.91948 36.96875,0.86218 L36.96875,0.86218 Z M36.96875,2.86218 C39.36255,3.08328 41.85867,3.20598 43.84375,4.42428 L37,32.61218 L30.15625,4.42468 C32,3.34938 34.80603,2.89648 36.96875,2.86218 Z M19.375,10.23698 L25.8125,19.92448 L24.09375,23.39318 C23.91289,23.75288 23.97795,24.22138 24.25,24.51818 L36,37.23698 L36,62.4558 L32.03125,78.5808 C31.68429,79.4189 30.90483,79.5845 30.06255,79.8311 L19.5313,77.8311 C18.13276,77.5651 17.38551,76.8722 17.0313,75.7685 C17.15469,60.5302 17.0187,45.5035 17.0001,32.89348 L13.15635,13.76848 C14.8355,12.76918 17.07587,11.50978 19.3751,10.23728 L19.375,10.23698 Z M54.625,10.23698 C56.94134,11.51118 59.18914,12.76598 60.875,13.76818 C59.77959,20.22628 57.99278,26.62058 57.03125,33.08078 C57.00415,47.7572 57.01615,63.1061 57.03125,75.7682 C56.81097,77.1455 55.62395,77.4989 54.53125,77.8308 L43.9375,79.8308 C43.01563,79.604 42.40716,79.1512 41.96885,78.5808 L38,62.456 L38,37.23718 L49.75,24.51838 C50.02205,24.22158 50.08711,23.75308 49.90625,23.39338 L48.1875,19.92468 L54.625,10.23698 Z M11.5,15.76818 C12.38345,21.68508 14,28.34938 15.03125,33.54908 C13.25884,37.40898 11.81406,40.8415 10.5625,44.6741 C10.2609,45.4124 10.09623,46.245 10,46.9241 L10,69.8616 L2.96875,69.8616 L2,46.8616 C2.11741,45.46 2.39084,43.9701 2.59375,42.768 C2.99634,40.382 3.60156,37.20748 4.46875,33.73678 C6.00258,27.59808 8.34387,20.59908 11.5,15.76798 L11.5,15.76818 Z M62.53125,15.83118 C65.66812,20.66008 68.00359,27.62338 69.53125,33.73738 C70.39845,37.20808 71.00365,40.3827 71.40625,42.7686 C71.64783,44.0801 71.88624,45.6855 72,46.8312 C71.67952,54.5024 71.35455,62.1864 71.03125,69.8622 L64,69.8622 L64,46.9247 C63.9636,46.1195 63.66535,45.3667 63.4375,44.6747 C62.15706,40.9575 60.73495,37.17328 59.03125,33.67468 C59.84136,27.79178 61.33726,21.71588 62.53125,15.83118 L62.53125,15.83118 Z M44,34.86218 L44,36.86218 L53,36.86218 L53,34.86218 L44,34.86218 Z"></path>
                    </g>
                </g>
            </g>
        </g>
    </g>
</svg>