<?xml version="1.0" encoding="UTF-8"?>
<svg width="42px" height="52px" viewBox="0 0 42 52" version="1.1" xmlns="http://www.w3.org/2000/svg" xmlns:xlink="http://www.w3.org/1999/xlink">
    <!-- Generator: Sketch 41.2 (35397) - http://www.bohemiancoding.com/sketch -->
    <title>single_page</title>
    <desc>Created with Sketch.</desc>
    <defs></defs>
    <g id="Symbols" stroke="none" stroke-width="1" fill="none" fill-rule="evenodd">
        <g id="single_page" fill="#FFFFFF">
            <g id="Group">
                <g>
                    <g id="Shape">
                        <path d="M23.8,0 L7.4,0 C3.5,0 0.4,3.1 0.4,7 L0.4,45 C0.4,48.9 3.5,52 7.4,52 L34.5,52 C38.4,52 41.5,48.9 41.5,45 L41.5,17.8 C41.5,15.9 40.8,14.2 39.5,12.9 L28.7,2.1 C27.4,0.7 25.7,0 23.8,0 Z M39.6,17.8 L39.6,45 C39.6,47.8 37.4,50 34.6,50 L7.4,50 C4.6,50 2.4,47.8 2.4,45 L2.4,7 C2.4,4.2 4.6,2 7.4,2 L23.8,2 C24.3,2 24.8,2.1 25.3,2.2 L25.3,9.3 C25.3,13.2 28.4,16.3 32.3,16.3 L39.4,16.3 C39.5,16.8 39.6,17.3 39.6,17.8 Z M38.1,14.3 L32.2,14.3 C29.4,14.3 27.2,12.1 27.2,9.3 L27.2,3.4 L27.2,3.4 L38.1,14.3 L38.1,14.3 Z"></path>
                        <path d="M10.6,28 L19.8,28 C20.4,28 20.8,27.6 20.8,27 C20.8,26.4 20.4,26 19.8,26 L10.6,26 C10,26 9.6,26.4 9.6,27 C9.6,27.6 10.1,28 10.6,28 Z"></path>
                        <path d="M31.3,36.3 L10.6,36.3 C10,36.3 9.6,36.7 9.6,37.3 C9.6,37.9 10,38.3 10.6,38.3 L31.3,38.3 C31.9,38.3 32.3,37.9 32.3,37.3 C32.3,36.7 31.8,36.3 31.3,36.3 Z"></path>
                    </g>
                </g>
            </g>
        </g>
    </g>
</svg>