<?xml version="1.0" encoding="UTF-8"?>
<svg width="88px" height="90px" viewBox="0 0 88 90" version="1.1" xmlns="http://www.w3.org/2000/svg" xmlns:xlink="http://www.w3.org/1999/xlink">
    <!-- Generator: Sketch 41.2 (35397) - http://www.bohemiancoding.com/sketch -->
    <title>updates</title>
    <desc>Created with Sketch.</desc>
    <defs></defs>
    <g id="Symbols" stroke="none" stroke-width="1" fill="none" fill-rule="evenodd">
        <g id="updates" fill="#FFFFFF">
            <g id="Group">
                <g>
                    <path d="M68.066,10.138 C65.781,10.138 63.633,11.027 62.015,12.642 C58.686,15.978 58.688,21.403 62.02,24.733 C63.633,26.347 65.781,27.237 68.067,27.237 C70.351,27.237 72.499,26.348 74.114,24.734 C77.445,21.401 77.445,15.975 74.112,12.639 C72.499,11.026 70.352,10.138 68.066,10.138 Z M71.285,21.905 C70.427,22.763 69.283,23.236 68.067,23.236 C66.85,23.236 65.708,22.763 64.849,21.904 C63.075,20.131 63.074,17.243 64.844,15.469 C65.704,14.611 66.848,14.137 68.066,14.137 C69.284,14.137 70.426,14.61 71.284,15.466 C73.058,17.243 73.059,20.131 71.285,21.905 Z M87.549,3.11 L87.486,2.136 C87.422,1.133 86.624,0.334 85.621,0.268 L84.651,0.205 C84.477,0.193 83.533,0.135 82.021,0.135 C74.844,0.135 56.884,1.401 45.166,13.123 C43.728,14.561 42.358,16.048 41.08,17.56 C39.488,16.79 37.644,16.377 35.726,16.377 C32.27,16.377 29.007,17.658 26.776,19.892 L14.583,32.085 C13.203,33.46 13.621,35.121 13.846,36.014 C13.886,36.175 13.929,36.339 13.961,36.506 C14.151,37.519 14.637,38.44 15.365,39.168 C15.803,39.606 16.321,39.96 16.922,40.23 L27.781,44.992 L17.07,55.702 C16.716,56.056 16.507,56.529 16.486,57.03 C16.484,57.085 16.474,57.496 16.558,58.149 C12.113,59.279 5.956,62.565 5.008,69.595 C4.911,70.314 5.213,71.028 5.793,71.462 C6.372,71.897 7.145,71.982 7.808,71.687 C9.115,71.105 11.043,70.602 12.354,70.658 C11.094,72.104 8.419,74.039 3.272,73.81 C2.422,73.779 1.639,74.277 1.325,75.068 C1.01,75.859 1.229,76.762 1.873,77.32 C2.072,77.493 5.637,80.521 10.358,80.799 C8.277,83.192 5.379,85.605 2.38,85.605 C1.347,85.605 0.484,86.391 0.389,87.42 C0.293,88.448 0.997,89.38 2.012,89.57 C2.164,89.598 3.648,89.864 5.87,89.864 C9.405,89.864 14.808,89.192 19.691,85.827 C24.405,82.58 27.574,77.546 29.166,70.881 C29.715,70.96 30.113,70.974 30.305,70.974 C30.372,70.974 30.415,70.972 30.43,70.971 C30.93,70.95 31.404,70.742 31.757,70.387 L42.655,59.489 L47.706,71.004 C47.955,71.587 48.312,72.114 48.771,72.577 C49.502,73.308 50.424,73.794 51.432,73.978 C51.742,74.037 52.058,74.066 52.372,74.066 C53.728,74.066 55.005,73.539 55.971,72.577 L68.291,60.255 C71.948,56.599 72.671,51.022 70.277,46.604 C71.779,45.327 73.237,43.981 74.627,42.589 C89.068,28.156 87.617,4.119 87.549,3.11 Z M12.962,84.746 C12.564,84.88 12.167,84.999 11.774,85.103 C14.651,82.323 16.419,79.242 16.55,79.007 C16.974,78.257 16.869,77.319 16.291,76.681 C15.713,76.043 14.792,75.845 14.003,76.193 C12.742,76.749 11.48,76.878 10.314,76.768 C15.414,74.807 16.995,70.798 17.082,70.568 C17.334,69.902 17.212,69.152 16.762,68.599 C15.109,66.57 12.407,66.456 10.137,66.838 C12.054,63.745 15.7,62.475 17.735,61.986 C18.399,63.376 19.409,64.931 20.967,66.491 C22.486,68.01 24.001,69.008 25.363,69.673 C23.568,77.516 19.402,82.583 12.962,84.746 Z M29.579,66.91 C29.271,66.86 28.869,66.767 28.404,66.617 C28.395,66.613 28.385,66.611 28.376,66.607 C27.171,66.212 25.525,65.393 23.795,63.664 C22.085,61.952 21.267,60.325 20.866,59.127 C20.859,59.106 20.851,59.085 20.844,59.064 C20.692,58.594 20.597,58.188 20.547,57.881 L29.789,48.64 C30.423,50.976 31.55,53.001 33.15,54.605 C34.646,56.101 36.509,57.182 38.652,57.836 L29.579,66.91 Z M66.374,44.646 C65.522,45.334 65.383,46.578 66.059,47.438 C68.415,50.437 68.161,54.731 65.465,57.425 L53.148,69.745 C52.892,70 52.556,70.117 52.163,70.045 C51.951,70.006 51.758,69.903 51.607,69.753 C51.509,69.654 51.434,69.545 51.378,69.412 L45.392,55.764 C45.076,55.044 44.369,54.576 43.582,54.567 C40.352,54.531 37.794,53.591 35.981,51.779 C34.239,50.033 33.31,47.598 33.205,44.55 C33.229,44.267 33.196,43.983 33.1,43.712 C33.098,43.705 33.097,43.699 33.095,43.693 C33.055,43.584 33.003,43.478 32.943,43.377 C32.736,42.984 32.417,42.655 31.994,42.471 L18.546,36.574 C18.408,36.512 18.287,36.431 18.196,36.341 C18.042,36.187 17.933,35.982 17.892,35.764 C17.845,35.517 17.786,35.275 17.726,35.038 C17.699,34.929 17.665,34.799 17.641,34.686 L29.606,22.719 C31.072,21.253 33.36,20.377 35.727,20.377 C37.498,20.377 39.136,20.869 40.34,21.764 C41.202,22.404 42.419,22.247 43.093,21.41 C44.585,19.548 46.236,17.713 47.995,15.953 C58.656,5.287 75.343,4.135 82.021,4.135 C82.67,4.135 83.201,4.147 83.595,4.16 C83.745,8.363 83.749,27.816 71.799,39.762 C70.083,41.48 68.258,43.124 66.374,44.646 Z M60.313,50.382 L51.165,59.53 C50.384,60.31 50.384,61.577 51.165,62.358 C51.556,62.749 52.067,62.944 52.579,62.944 C53.091,62.944 53.602,62.749 53.993,62.358 L63.141,53.21 C63.922,52.43 63.922,51.163 63.141,50.382 C62.36,49.601 61.094,49.601 60.313,50.382 Z M34.396,24.466 L25.25,33.613 C24.469,34.394 24.469,35.661 25.25,36.442 C25.641,36.832 26.152,37.027 26.664,37.027 C27.176,37.027 27.687,36.832 28.078,36.441 L37.224,27.294 C38.005,26.513 38.005,25.246 37.224,24.465 C36.443,23.685 35.178,23.685 34.396,24.466 Z" id="Shape"></path>
                </g>
            </g>
        </g>
    </g>
</svg>